<svg xmlns="http://www.w3.org/2000/svg" width="248" height="32" viewBox="0 0 248 32">
    <g fill="none" fill-rule="evenodd">
        <path fill="#D94B53" d="M21.927 31.833c-2.17-2.133-2.143-7.236-.178-9.895.916-.02 14.345-.412 15.954-6.56 1.166.225 4.418.92 4.418.92s-1.658 7.29-8.051 12.202c-1.82 1.398-5.975 3.33-12.143 3.337v-.004z"/>
        <path fill="#F2535C" d="M22.204 31.833c2.17-2.133 2.143-7.236.178-9.895-.916-.02-14.345-.412-15.954-6.56-1.166.225-4.418.92-4.418.92s1.658 7.29 8.051 12.202c1.82 1.398 5.975 3.33 12.143 3.337v-.004z"/>
        <path fill="#E55C64" d="M27.897 9.036c-3.138 0-5.437 2.111-5.577 2.243v.036c1.861 1.153 2.048 5.503 0 6.656v.063c2.161-.002 4.048-1.125 5.577-1.124 2.268.002 4.536 1.125 7.818 1.125 5.498 0 8.248-2.872 8.248-2.872s-2.212-.425-4.823-2.037c-3.908-2.411-8.818-4.09-11.243-4.09"/>
        <path fill="#FF656F" d="M22.343 17.96c2.048-1.153 1.861-5.502 0-6.655v-.036l-.007.006s-2.344-2.25-5.584-2.25c-2.424 0-8.021 1.68-11.929 4.091C2.212 14.727 0 15.153 0 15.153s3.436 2.871 8.935 2.871c3.392 0 5.359-1.122 7.817-1.124 1.526-.002 3.35 1.124 5.584 1.124h.007v-.064z"/>
        <path fill="#6DC101" d="M37.93 3.033c0-1.539 1.215-2.787 2.715-2.787 1.499 0 2.714 1.248 2.714 2.787 0 1.54-1.215 2.787-2.714 2.787-1.5 0-2.715-1.248-2.715-2.787"/>
        <path fill="#FFF" d="M61.316 29.276c3.22 0 5.405-1.84 5.405-4.508 0-2.07-1.541-3.45-3.243-3.68 1.725-.322 3.036-1.748 3.036-3.496 0-2.714-2.162-4.163-5.198-4.163-2.208 0-4.094.943-5.198 2.484l1.748 1.794c.782-.989 1.978-1.541 3.128-1.541 1.403 0 2.392.621 2.392 1.909 0 1.196-1.035 1.771-2.507 1.771h-2.323v2.714h2.415c1.656 0 2.645.598 2.645 1.932 0 1.196-.782 2.047-2.461 2.047-1.265 0-2.622-.667-3.404-1.679l-1.84 1.932c.966 1.403 2.944 2.484 5.405 2.484zm13.84 0c4.025 0 6.417-3.358 6.417-7.935 0-4.554-2.392-7.935-6.417-7.935-4.002 0-6.394 3.381-6.394 7.935 0 4.577 2.392 7.935 6.394 7.935zm0-2.737c-2.093 0-3.22-2.277-3.22-5.198 0-2.967 1.127-5.198 3.22-5.198 2.116 0 3.266 2.231 3.266 5.198 0 2.921-1.15 5.198-3.266 5.198zm8.159 2.737c2.829 0 4.876-1.058 5.428-7.383l.483-5.52h3.128V29h3.105V13.659H86.42l-.736 8.05c-.391 4.209-1.104 4.83-2.369 4.83v2.737zm17.276 0c2.3 0 3.473-1.104 4.324-3.128l5.267-12.489h-3.381l-2.898 7.475-2.898-7.475h-3.381l4.623 10.879-.23.598c-.414.897-.851 1.38-1.748 1.38-.598 0-1.173-.253-1.61-.621l-.966 2.507c.69.529 1.794.874 2.898.874zm25.234-15.617v12.627h-3.657V13.659h-3.082v12.627h-3.657V13.659h-3.082V29h16.56V13.659h-3.082zM143.16 29l-5.244-8.119 4.899-7.222h-3.588l-4.324 6.969v-6.969h-3.082V29h3.082v-4.301l1.081-1.702L139.526 29h3.634zm13.311 0l-4.554-15.341h-3.726L143.637 29h3.335l.713-2.714h4.715l.713 2.714h3.358zm-4.669-5.428h-3.496l1.748-6.67 1.748 6.67zM166.694 29v-5.543h2.576c3.151 0 4.738-2.277 4.738-4.899s-1.587-4.899-4.738-4.899h-5.658V29h3.082zm2.208-8.257h-2.208v-4.37h2.208c1.173 0 1.955.851 1.955 2.185s-.782 2.185-1.955 2.185zM186.882 29l-2.783-6.095c1.265-.414 2.668-1.748 2.668-4.393 0-2.829-1.863-4.853-4.669-4.853h-5.727V29h3.082v-5.543h1.656L183.455 29h3.427zm-5.244-8.257h-2.185v-4.37h2.185c1.196 0 1.978.851 1.978 2.185s-.782 2.185-1.978 2.185zm13.679 8.533c4.025 0 6.417-3.358 6.417-7.935 0-4.554-2.392-7.935-6.417-7.935-4.002 0-6.394 3.381-6.394 7.935 0 4.577 2.392 7.935 6.394 7.935zm0-2.737c-2.093 0-3.22-2.277-3.22-5.198 0-2.967 1.127-5.198 3.22-5.198 2.116 0 3.266 2.231 3.266 5.198 0 2.921-1.15 5.198-3.266 5.198zm10.089 2.737c2.806 0 4.784-1.472 4.784-4.715V13.659h-3.082v10.81c0 1.334-.782 2.07-2.001 2.07-.759 0-1.426-.345-1.909-.851l-1.104 2.415c.92.851 2.093 1.173 3.312 1.173zM222.267 29v-2.714h-5.704V22.56h5.543v-2.714h-5.543v-3.473h5.704v-2.714h-8.786V29h8.786zm8.742.276c2.99 0 4.393-2.024 5.152-3.864l-2.553-1.104c-.437 1.265-1.334 2.231-2.599 2.231-2.07 0-3.312-2.185-3.312-5.198 0-3.013 1.242-5.198 3.312-5.198 1.219 0 2.116.851 2.576 2.07l2.553-1.127c-.782-1.771-2.185-3.68-5.129-3.68-3.979 0-6.486 3.289-6.486 7.935 0 4.646 2.507 7.935 6.486 7.935zM244.113 29V16.373h3.404v-2.714h-9.89v2.714h3.404V29h3.082z"/>
    </g>
</svg>
