<?xml version="1.0" encoding="UTF-8"?>
<svg width="248px" height="37px" viewBox="0 0 248 37" version="1.1" xmlns="http://www.w3.org/2000/svg" xmlns:xlink="http://www.w3.org/1999/xlink">
    <!-- Generator: Sketch 42 (36781) - http://www.bohemiancoding.com/sketch -->
    <title>logo main avt</title>
    <desc>Created with Sketch.</desc>
    <defs></defs>
    <g id="Symbols" stroke="none" stroke-width="1" fill="none" fill-rule="evenodd">
        <g id="header/desktop-hd/header-male-invis" transform="translate(-81.000000, -16.000000)">
            <g id="header/logo-main-avt" transform="translate(81.000000, 16.000000)">
                <g id="logo-main-avt">
                    <g id="Group-2">
                        <path d="M21.9272938,31.8327936 C19.7573352,29.7003512 19.7837352,24.5972539 21.7494731,21.9380864 C22.6646731,21.9184627 36.0937766,21.5256771 37.7026593,15.3778512 C38.868811,15.6033681 42.1205628,16.2989193 42.1205628,16.2989193 C42.1205628,16.2989193 40.4628248,23.5880349 34.0697766,28.4998789 C32.2493903,29.8984571 28.09488,31.8306132 21.9272938,31.8371544 L21.9272938,31.8327936 Z" id="Fill-1" fill="#D94B53"></path>
                        <path d="M22.2037352,31.8327936 C24.3736938,29.7003512 24.3472938,24.5972539 22.3815559,21.9380864 C21.4663559,21.9184627 8.03725241,21.5256771 6.42836966,15.3778512 C5.26221793,15.6033681 2.01046621,16.2989193 2.01046621,16.2989193 C2.01046621,16.2989193 3.66820414,23.5880349 10.0612524,28.4998789 C11.8816386,29.8984571 16.036149,31.8306132 22.2037352,31.8371544 L22.2037352,31.8327936 Z" id="Fill-3" fill="#F2535C"></path>
                        <path d="M27.8974869,9.03590645 C24.7586179,9.03590645 22.4603007,11.1474792 22.3201076,11.2792384 L22.3201076,11.3150594 C24.1814593,12.4678741 24.3677766,16.817795 22.3201076,17.9706097 L22.3201076,18.0344646 C24.4812662,18.0322842 26.3675007,16.9087493 27.8974869,16.9099952 C30.1651559,16.9118642 32.4334317,18.0347761 35.7152248,18.0347761 C41.2134041,18.0347761 43.9626455,15.1628627 43.9626455,15.1628627 C43.9626455,15.1628627 41.7505076,14.7376824 39.1396386,13.1263584 C35.2318317,10.7145118 30.3217352,9.03590645 27.8974869,9.03590645" id="Fill-5" fill="#E55C64"></path>
                        <path d="M22.3430786,17.9602683 C24.3907476,16.8074536 24.2044303,12.4575327 22.3430786,11.304718 L22.3430786,11.268897 C22.3385269,11.2732578 22.3364028,11.2754382 22.3364028,11.2754382 C22.3364028,11.2754382 19.9922648,9.02556507 16.7523476,9.02556507 C14.3277959,9.02556507 8.73069241,10.7041704 4.82318897,13.116017 C2.21201655,14.7273411 -0.000121379308,15.1525213 -0.000121379308,15.1525213 C-0.000121379308,15.1525213 3.4361269,18.0244347 8.93460966,18.0244347 C12.3268579,18.0244347 14.2935062,16.9015228 16.7523476,16.8996538 C18.278389,16.8984079 20.10272,18.0244347 22.3364028,18.0244347 C22.3385269,18.0244347 22.340651,18.0241232 22.3430786,18.0241232 L22.3430786,17.9602683 Z" id="Fill-7" fill="#FF656F"></path>
                        <path d="M37.9297462,2.96119952 C37.9297462,1.46183497 39.14536,0.246199603 40.6446979,0.246199603 C42.1440359,0.246199603 43.3593462,1.46183497 43.3593462,2.96119952 C43.3593462,4.46056406 42.1440359,5.67619943 40.6446979,5.67619943 C39.14536,5.67619943 37.9297462,4.46056406 37.9297462,2.96119952" id="Fill-10" fill="#6DC101"></path>
                    </g>
                    <path d="M61.316,20.276 C64.536,20.276 66.721,18.436 66.721,15.768 C66.721,13.698 65.18,12.318 63.478,12.088 C65.203,11.766 66.514,10.34 66.514,8.592 C66.514,5.878 64.352,4.429 61.316,4.429 C59.108,4.429 57.222,5.372 56.118,6.913 L57.866,8.707 C58.648,7.718 59.844,7.166 60.994,7.166 C62.397,7.166 63.386,7.787 63.386,9.075 C63.386,10.271 62.351,10.846 60.879,10.846 L58.556,10.846 L58.556,13.56 L60.971,13.56 C62.627,13.56 63.616,14.158 63.616,15.492 C63.616,16.688 62.834,17.539 61.155,17.539 C59.89,17.539 58.533,16.872 57.751,15.86 L55.911,17.792 C56.877,19.195 58.855,20.276 61.316,20.276 L61.316,20.276 Z M75.156,20.276 C79.181,20.276 81.573,16.918 81.573,12.341 C81.573,7.787 79.181,4.406 75.156,4.406 C71.154,4.406 68.762,7.787 68.762,12.341 C68.762,16.918 71.154,20.276 75.156,20.276 L75.156,20.276 Z M75.156,17.539 C73.063,17.539 71.936,15.262 71.936,12.341 C71.936,9.374 73.063,7.143 75.156,7.143 C77.272,7.143 78.422,9.374 78.422,12.341 C78.422,15.262 77.272,17.539 75.156,17.539 L75.156,17.539 Z M83.315,20.276 C86.144,20.276 88.191,19.218 88.743,12.893 L89.226,7.373 L92.354,7.373 L92.354,20 L95.459,20 L95.459,4.659 L86.42,4.659 L85.684,12.709 C85.293,16.918 84.58,17.539 83.315,17.539 L83.315,20.276 Z M100.591,20.276 C102.891,20.276 104.064,19.172 104.915,17.148 L110.182,4.659 L106.801,4.659 L103.903,12.134 L101.005,4.659 L97.624,4.659 L102.247,15.538 L102.017,16.136 C101.603,17.033 101.166,17.516 100.269,17.516 C99.671,17.516 99.096,17.263 98.659,16.895 L97.693,19.402 C98.383,19.931 99.487,20.276 100.591,20.276 L100.591,20.276 Z M125.825,4.659 L125.825,17.286 L122.168,17.286 L122.168,4.659 L119.086,4.659 L119.086,17.286 L115.429,17.286 L115.429,4.659 L112.347,4.659 L112.347,20 L128.907,20 L128.907,4.659 L125.825,4.659 Z M143.16,20 L137.916,11.881 L142.815,4.659 L139.227,4.659 L134.903,11.628 L134.903,4.659 L131.821,4.659 L131.821,20 L134.903,20 L134.903,15.699 L135.984,13.997 L139.526,20 L143.16,20 Z M156.471,20 L151.917,4.659 L148.191,4.659 L143.637,20 L146.972,20 L147.685,17.286 L152.4,17.286 L153.113,20 L156.471,20 Z M151.802,14.572 L148.306,14.572 L150.054,7.902 L151.802,14.572 Z M166.694,20 L166.694,14.457 L169.27,14.457 C172.421,14.457 174.008,12.18 174.008,9.558 C174.008,6.936 172.421,4.659 169.27,4.659 L163.612,4.659 L163.612,20 L166.694,20 Z M168.902,11.743 L166.694,11.743 L166.694,7.373 L168.902,7.373 C170.075,7.373 170.857,8.224 170.857,9.558 C170.857,10.892 170.075,11.743 168.902,11.743 L168.902,11.743 Z M186.882,20 L184.099,13.905 C185.364,13.491 186.767,12.157 186.767,9.512 C186.767,6.683 184.904,4.659 182.098,4.659 L176.371,4.659 L176.371,20 L179.453,20 L179.453,14.457 L181.109,14.457 L183.455,20 L186.882,20 Z M181.638,11.743 L179.453,11.743 L179.453,7.373 L181.638,7.373 C182.834,7.373 183.616,8.224 183.616,9.558 C183.616,10.892 182.834,11.743 181.638,11.743 L181.638,11.743 Z M195.317,20.276 C199.342,20.276 201.734,16.918 201.734,12.341 C201.734,7.787 199.342,4.406 195.317,4.406 C191.315,4.406 188.923,7.787 188.923,12.341 C188.923,16.918 191.315,20.276 195.317,20.276 L195.317,20.276 Z M195.317,17.539 C193.224,17.539 192.097,15.262 192.097,12.341 C192.097,9.374 193.224,7.143 195.317,7.143 C197.433,7.143 198.583,9.374 198.583,12.341 C198.583,15.262 197.433,17.539 195.317,17.539 L195.317,17.539 Z M205.406,20.276 C208.212,20.276 210.19,18.804 210.19,15.561 L210.19,4.659 L207.108,4.659 L207.108,15.469 C207.108,16.803 206.326,17.539 205.107,17.539 C204.348,17.539 203.681,17.194 203.198,16.688 L202.094,19.103 C203.014,19.954 204.187,20.276 205.406,20.276 L205.406,20.276 Z M222.267,20 L222.267,17.286 L216.563,17.286 L216.563,13.56 L222.106,13.56 L222.106,10.846 L216.563,10.846 L216.563,7.373 L222.267,7.373 L222.267,4.659 L213.481,4.659 L213.481,20 L222.267,20 Z M231.009,20.276 C233.999,20.276 235.402,18.252 236.161,16.412 L233.608,15.308 C233.171,16.573 232.274,17.539 231.009,17.539 C228.939,17.539 227.697,15.354 227.697,12.341 C227.697,9.328 228.939,7.143 231.009,7.143 C232.228,7.143 233.125,7.994 233.585,9.213 L236.138,8.086 C235.356,6.315 233.953,4.406 231.009,4.406 C227.03,4.406 224.523,7.695 224.523,12.341 C224.523,16.987 227.03,20.276 231.009,20.276 L231.009,20.276 Z M244.113,20 L244.113,7.373 L247.517,7.373 L247.517,4.659 L237.627,4.659 L237.627,7.373 L241.031,7.373 L241.031,20 L244.113,20 Z" id="ЗОЛУШКА-PROJECT" fill="#000000"></path>
                    <text font-family="open-sans, arial" font-size="13" font-weight="normal" line-spacing="13" fill="#181818">
                        <tspan x="55" y="37">выгодные отношения</tspan>
                    </text>
                </g>
            </g>
        </g>
    </g>
</svg>